<?xml version="1.0" encoding="utf-8"?>
<!-- Generator: Adobe Illustrator 16.0.0, SVG Export Plug-In . SVG Version: 6.00 Build 0)  -->
<!DOCTYPE svg PUBLIC "-//W3C//DTD SVG 1.1//EN" "http://www.w3.org/Graphics/SVG/1.1/DTD/svg11.dtd">
<svg version="1.1" id="Layer_1" xmlns="http://www.w3.org/2000/svg" xmlns:xlink="http://www.w3.org/1999/xlink" x="0px" y="0px"
	 width="430px" height="590px" viewBox="0 0 430 590" enable-background="new 0 0 430 590" xml:space="preserve">
<g>
	<path fill="#4B5568" d="M23.139,193.007h25.573v37.096L47.904,248.5l0.101,0.101c1.145-1.617,2.476-3.167,3.993-4.649
		c1.516-1.481,3.234-2.813,5.155-3.993c1.92-1.178,4.043-2.105,6.368-2.78c2.325-0.673,4.868-1.011,7.631-1.011
		c1.415,0,3.116,0.136,5.104,0.404c1.987,0.27,4.043,0.945,6.166,2.021c2.123,1.079,4.245,2.679,6.368,4.801
		c2.123,2.123,4.008,5.039,5.661,8.744c1.65,3.707,2.998,8.323,4.043,13.848c1.044,5.526,1.567,12.23,1.567,20.115v42.15
		c0,7.885-0.523,14.59-1.567,20.115c-1.045,5.525-2.41,10.158-4.094,13.898c-1.685,3.739-3.605,6.688-5.761,8.844
		c-2.158,2.157-4.347,3.774-6.57,4.852s-4.381,1.77-6.469,2.072c-2.089,0.304-3.909,0.455-5.458,0.455
		c-3.234,0-6.15-0.404-8.743-1.213c-2.595-0.809-4.887-1.903-6.874-3.285c-1.988-1.38-3.74-2.947-5.256-4.7
		c-1.516-1.751-2.848-3.538-3.993-5.357l-2.123,12.938H23.139V193.007z M48.712,348.669c0.539,1.281,1.195,2.527,1.971,3.74
		c0.774,1.213,1.668,2.274,2.679,3.184c1.011,0.91,2.189,1.652,3.538,2.224c1.347,0.573,2.863,0.859,4.548,0.859
		c1.886,0,3.604-0.354,5.155-1.062c1.549-0.707,2.896-1.986,4.043-3.841c1.145-1.853,2.037-4.43,2.679-7.732
		c0.64-3.301,0.96-7.546,0.96-12.736v-53.268c0-5.188-0.32-9.417-0.96-12.686c-0.642-3.268-1.516-5.845-2.628-7.732
		c-1.112-1.886-2.443-3.167-3.992-3.841c-1.551-0.673-3.27-1.011-5.155-1.011c-3.168,0-5.779,0.927-7.833,2.78
		c-2.057,1.854-3.724,4.061-5.003,6.621V348.669z"/>
	<path fill="#4B5568" d="M123.309,237.684h25.573v104.617c0,6.133,0.943,10.396,2.83,12.787c1.886,2.393,4.65,3.588,8.289,3.588
		c2.56,0,5.054-0.707,7.48-2.122c2.426-1.416,4.615-3.438,6.57-6.065V237.684h25.573V376.87h-19.508l-2.527-14.858h-0.101
		c-2.022,3.168-4.162,5.812-6.419,7.935c-2.258,2.123-4.616,3.808-7.075,5.054c-2.461,1.248-4.97,2.139-7.53,2.679
		c-2.562,0.539-5.122,0.809-7.682,0.809c-8.154,0-14.438-2.83-18.852-8.49c-4.414-5.661-6.621-14.218-6.621-25.675V237.684z"/>
	<path fill="#4B5568" d="M239.954,217.771c-4.718,0-8.44-1.415-11.169-4.245c-2.729-2.83-4.094-6.975-4.094-12.433
		c0-3.032,0.354-5.575,1.061-7.631c0.708-2.055,1.719-3.706,3.033-4.953c1.313-1.246,2.913-2.156,4.801-2.729
		c1.886-0.572,4.043-0.859,6.469-0.859c5.055,0,8.896,1.281,11.523,3.841c2.628,2.562,3.942,6.671,3.942,12.332
		c0,5.256-1.332,9.35-3.993,12.281C248.864,216.306,245.008,217.771,239.954,217.771z M226.713,237.684h25.572V376.87h-25.572
		V237.684z"/>
	<path fill="#4B5568" d="M279.375,193.007h25.572V376.87h-25.572V193.007z"/>
	<path fill="#4B5568" d="M358.317,378.487c-1.551,0-3.37-0.151-5.458-0.455c-2.09-0.303-4.246-0.995-6.47-2.072
		s-4.414-2.694-6.569-4.852c-2.158-2.155-4.078-5.104-5.762-8.844c-1.686-3.74-3.05-8.373-4.094-13.898
		c-1.046-5.525-1.567-12.23-1.567-20.115V284.08c0-7.816,0.557-14.419,1.668-19.812c1.112-5.39,2.578-9.855,4.397-13.393
		c1.819-3.538,3.856-6.3,6.115-8.289c2.257-1.987,4.514-3.452,6.772-4.397c2.257-0.943,4.412-1.516,6.469-1.718
		c2.055-0.202,3.756-0.303,5.104-0.303c2.492,0,4.852,0.338,7.075,1.011c2.224,0.674,4.246,1.567,6.065,2.679
		s3.437,2.359,4.852,3.74c1.415,1.382,2.593,2.78,3.538,4.195l0.101-0.101l-0.809-17.587v-37.096h25.472V376.87h-19.912
		l-2.224-12.938c-1.146,1.819-2.461,3.606-3.942,5.357c-1.483,1.753-3.234,3.32-5.256,4.7c-2.021,1.382-4.313,2.477-6.874,3.285
		C364.448,378.083,361.552,378.487,358.317,378.487z M367.01,358.676c1.684,0,3.185-0.286,4.498-0.859
		c1.314-0.571,2.492-1.313,3.538-2.224c1.044-0.909,1.954-1.971,2.729-3.184c0.773-1.213,1.431-2.459,1.971-3.74v-83.693
		c-1.281-2.83-2.981-5.239-5.104-7.227c-2.123-1.987-4.7-2.982-7.732-2.982c-1.888,0-3.605,0.338-5.155,1.011
		c-1.551,0.674-2.898,1.938-4.043,3.791c-1.146,1.854-2.039,4.415-2.679,7.682c-0.642,3.269-0.96,7.497-0.96,12.686v53.369
		c0,5.19,0.318,9.436,0.96,12.736c0.64,3.303,1.532,5.88,2.679,7.732c1.145,1.854,2.51,3.134,4.094,3.841
		C363.387,358.322,365.123,358.676,367.01,358.676z"/>
</g>
<g>
	<path fill="#4B5568" d="M40.178,505.458v23.168H24.207V413.607h12.5l1.452,9.153c0.715-1.178,1.567-2.377,2.557-3.599
		c0.989-1.22,2.146-2.304,3.472-3.251s2.819-1.725,4.482-2.336c1.662-0.609,3.524-0.915,5.587-0.915
		c0.884,0,1.946,0.085,3.188,0.253c1.241,0.168,2.525,0.59,3.851,1.262c1.326,0.674,2.651,1.673,3.977,2.999
		c1.326,1.325,2.503,3.146,3.535,5.461c1.031,2.314,1.872,5.198,2.525,8.648c0.652,3.451,0.979,7.638,0.979,12.562v26.324
		c0,4.924-0.327,9.112-0.979,12.562c-0.653,3.451-1.505,6.334-2.557,8.648c-1.052,2.314-2.252,4.146-3.598,5.492
		c-1.348,1.347-2.715,2.357-4.104,3.03c-1.389,0.672-2.736,1.104-4.04,1.294c-1.305,0.189-2.441,0.284-3.409,0.284
		c-3.367,0-6.176-0.653-8.427-1.957c-2.252-1.305-4.094-2.883-5.524-4.735L40.178,505.458z M40.178,482.795
		c0.336,0.843,0.747,1.642,1.231,2.399c0.483,0.757,1.051,1.431,1.704,2.02c0.652,0.59,1.389,1.063,2.209,1.421
		c0.821,0.357,1.778,0.536,2.873,0.536c1.178,0,2.251-0.221,3.219-0.662c0.968-0.442,1.809-1.241,2.525-2.399
		c0.715-1.157,1.272-2.767,1.673-4.829c0.399-2.062,0.6-4.713,0.6-7.954v-33.269c0-3.24-0.2-5.881-0.6-7.923
		c-0.4-2.04-0.947-3.65-1.642-4.829c-0.694-1.178-1.526-1.978-2.493-2.398c-0.969-0.421-2.042-0.632-3.22-0.632
		c-2.02,0-3.672,0.6-4.956,1.8c-1.284,1.199-2.326,2.599-3.125,4.197V482.795z"/>
	<path fill="#4B5568" d="M108.609,501.481c-1.852,0-3.735-0.148-5.65-0.442c-1.916-0.295-3.767-0.904-5.555-1.831
		c-1.789-0.925-3.472-2.25-5.05-3.977c-1.578-1.726-2.957-3.998-4.135-6.817c-1.179-2.819-2.105-6.292-2.778-10.417
		c-0.673-4.124-1.01-9.048-1.01-14.771V449.59c0-5.639,0.347-10.468,1.042-14.487c0.694-4.019,1.642-7.396,2.841-10.133
		c1.199-2.734,2.598-4.913,4.198-6.533c1.599-1.62,3.293-2.861,5.082-3.725c1.788-0.862,3.63-1.431,5.523-1.704
		c1.894-0.273,3.746-0.411,5.556-0.411c1.725,0,3.513,0.127,5.366,0.379c1.852,0.253,3.662,0.789,5.429,1.61
		c1.768,0.82,3.44,2.041,5.019,3.661s2.967,3.799,4.167,6.533c1.199,2.736,2.146,6.135,2.841,10.195
		c0.694,4.062,1.042,8.933,1.042,14.614v13.636c0,5.64-0.358,10.501-1.073,14.583c-0.716,4.082-1.684,7.533-2.904,10.353
		c-1.221,2.82-2.631,5.104-4.229,6.85c-1.6,1.747-3.283,3.104-5.05,4.071c-1.768,0.969-3.567,1.61-5.397,1.926
		C112.049,501.323,110.292,501.481,108.609,501.481z M108.735,489.171c1.43,0,2.641-0.367,3.63-1.104
		c0.988-0.735,1.788-1.946,2.399-3.63c0.609-1.683,1.051-3.903,1.326-6.66c0.273-2.756,0.41-6.176,0.41-10.258v-21.4
		c0-4.082-0.137-7.513-0.41-10.29c-0.274-2.777-0.716-5.019-1.326-6.723c-0.611-1.705-1.411-2.936-2.399-3.693
		c-0.989-0.758-2.2-1.137-3.63-1.137c-1.515,0-2.789,0.379-3.819,1.137c-1.032,0.758-1.884,1.988-2.557,3.693
		c-0.674,1.704-1.158,3.945-1.452,6.723c-0.295,2.777-0.442,6.208-0.442,10.29v21.4c0,4.082,0.147,7.502,0.442,10.258
		c0.294,2.757,0.778,4.978,1.452,6.66c0.673,1.684,1.525,2.895,2.557,3.63C105.947,488.804,107.22,489.171,108.735,489.171z"/>
	<path fill="#4B5568" d="M163.341,501.544c-0.969,0-2.105-0.095-3.409-0.284c-1.305-0.189-2.651-0.621-4.04-1.294
		s-2.757-1.683-4.104-3.03c-1.347-1.346-2.547-3.188-3.598-5.523c-1.052-2.336-1.905-5.229-2.557-8.68
		c-0.653-3.45-0.979-7.639-0.979-12.562v-27.587c0-4.882,0.347-9.006,1.042-12.373s1.61-6.155,2.746-8.364
		c1.136-2.21,2.409-3.935,3.819-5.177c1.41-1.241,2.819-2.156,4.229-2.746c1.41-0.589,2.756-0.947,4.04-1.073
		c1.284-0.126,2.346-0.189,3.188-0.189c1.557,0,3.03,0.211,4.419,0.631c1.389,0.422,2.651,0.979,3.788,1.673
		c1.136,0.695,2.146,1.475,3.03,2.336c0.884,0.863,1.62,1.736,2.209,2.62l0.063-0.063l-0.505-10.984v-23.168h15.908v114.83h-12.436
		l-1.389-8.08c-0.716,1.136-1.537,2.252-2.462,3.346c-0.926,1.095-2.021,2.073-3.283,2.936c-1.263,0.862-2.694,1.546-4.293,2.052
		C167.17,501.292,165.361,501.544,163.341,501.544z M168.77,489.171c1.052,0,1.989-0.179,2.809-0.536
		c0.821-0.357,1.557-0.821,2.209-1.389c0.652-0.568,1.22-1.231,1.705-1.989c0.483-0.757,0.894-1.535,1.231-2.335v-52.271
		c-0.8-1.768-1.862-3.271-3.188-4.514c-1.326-1.24-2.935-1.862-4.829-1.862c-1.179,0-2.252,0.211-3.22,0.632
		c-0.968,0.421-1.81,1.21-2.525,2.367c-0.716,1.158-1.273,2.757-1.673,4.798c-0.4,2.042-0.6,4.682-0.6,7.922v33.332
		c0,3.241,0.199,5.893,0.6,7.954c0.399,2.062,0.957,3.672,1.673,4.829c0.715,1.158,1.567,1.957,2.557,2.399
		C166.507,488.95,167.591,489.171,168.77,489.171z"/>
	<path fill="#4B5568" d="M229.31,501.481c-7.323,0-12.909-3.009-16.76-9.027s-5.776-15.192-5.776-27.524v-16.413
		c0-5.513,0.399-10.236,1.199-14.172c0.799-3.935,1.862-7.238,3.188-9.911c1.326-2.672,2.841-4.787,4.545-6.345
		c1.705-1.557,3.461-2.746,5.271-3.566s3.599-1.347,5.366-1.578c1.768-0.23,3.387-0.348,4.86-0.348c2.945,0,5.64,0.39,8.081,1.168
		c2.439,0.779,4.545,1.957,6.312,3.535s3.135,3.567,4.104,5.966c0.967,2.398,1.451,5.219,1.451,8.459
		c0,2.021-0.095,3.756-0.283,5.208c-0.189,1.452-0.453,2.852-0.79,4.198h-12.751v-2.904c0-4.376-0.517-7.796-1.547-10.258
		c-1.032-2.462-2.726-3.693-5.082-3.693c-1.305,0-2.441,0.306-3.409,0.916s-1.778,1.651-2.43,3.124
		c-0.653,1.474-1.137,3.452-1.452,5.935c-0.315,2.483-0.474,5.598-0.474,9.343v24.683c0,3.788,0.126,7.008,0.379,9.659
		c0.252,2.651,0.694,4.809,1.325,6.471c0.632,1.663,1.473,2.872,2.525,3.63c1.052,0.757,2.356,1.136,3.914,1.136
		c0.799,0,1.578-0.199,2.336-0.6c0.757-0.399,1.42-1.062,1.988-1.988s1.031-2.156,1.389-3.693c0.357-1.535,0.537-3.44,0.537-5.713
		v-2.715h13.762v3.347c0,8.249-1.821,14.257-5.461,18.022C241.987,499.598,236.548,501.481,229.31,501.481z"/>
	<path fill="#4B5568" d="M276.024,501.481c-2.694,0-5.082-0.537-7.165-1.61s-3.841-2.535-5.271-4.387s-2.516-4.051-3.251-6.598
		c-0.737-2.546-1.104-5.312-1.104-8.301c0-3.577,0.441-6.755,1.325-9.532c0.884-2.778,2.178-5.281,3.883-7.513
		c1.704-2.229,3.819-4.261,6.344-6.092c2.525-1.83,5.45-3.566,8.775-5.208c1.599-0.799,3.397-1.609,5.397-2.431
		c1.998-0.82,3.776-1.524,5.334-2.114v-11.489c0-1.683-0.063-3.251-0.189-4.703s-0.432-2.715-0.915-3.788
		c-0.484-1.073-1.211-1.914-2.178-2.524c-0.969-0.61-2.295-0.916-3.978-0.916c-1.136,0-2.241,0.211-3.314,0.632
		s-2.02,1.136-2.841,2.146c-0.82,1.01-1.474,2.357-1.957,4.04c-0.483,1.684-0.726,3.767-0.726,6.249v3.788H262.01
		c-0.379-1.642-0.663-3.146-0.853-4.514c-0.189-1.367-0.284-2.725-0.284-4.071c0-3.24,0.558-6.103,1.673-8.586
		c1.115-2.482,2.673-4.565,4.672-6.25c1.998-1.683,4.388-2.956,7.165-3.818s5.828-1.295,9.153-1.295
		c4.334,0,7.933,0.474,10.795,1.421c2.861,0.946,5.146,2.367,6.85,4.261c1.704,1.895,2.904,4.272,3.599,7.134
		c0.694,2.862,1.041,6.208,1.041,10.037v65.085h-11.868l-1.136-7.449c-1.727,2.483-4.03,4.504-6.913,6.061
		S279.727,501.481,276.024,501.481z M283.095,489.171c1.346,0,2.661-0.347,3.945-1.041c1.283-0.694,2.367-1.547,3.251-2.557v-27.208
		c-0.843,0.337-1.789,0.736-2.841,1.199c-1.053,0.463-2.188,1.073-3.409,1.83c-1.136,0.717-2.252,1.578-3.346,2.589
		c-1.095,1.01-2.073,2.209-2.936,3.598c-0.862,1.39-1.557,2.958-2.083,4.703c-0.526,1.747-0.789,3.693-0.789,5.84
		c0,3.325,0.652,5.997,1.957,8.017C278.148,488.161,280.232,489.171,283.095,489.171z"/>
	<path fill="#4B5568" d="M318.951,482.354c0-1.894,0.179-3.725,0.536-5.492s0.705-3.177,1.042-4.229h11.236
		c0,3.156,0.158,5.798,0.474,7.923s0.831,3.818,1.547,5.081c0.715,1.263,1.673,2.168,2.872,2.715s2.661,0.82,4.388,0.82
		c2.398,0,4.145-0.673,5.239-2.02c1.094-1.347,1.642-2.904,1.642-4.672c0-0.925-0.126-1.809-0.379-2.651
		c-0.252-0.841-0.61-1.693-1.073-2.557c-0.464-0.862-1.031-1.736-1.704-2.62c-0.674-0.884-1.432-1.851-2.272-2.903l-11.679-13.762
		c-1.516-1.895-2.979-3.819-4.388-5.776c-1.41-1.957-2.651-3.978-3.725-6.061s-1.937-4.261-2.588-6.533
		c-0.653-2.273-0.979-4.672-0.979-7.197c0-3.366,0.578-6.291,1.735-8.774c1.157-2.482,2.715-4.545,4.672-6.187
		s4.219-2.861,6.786-3.661c2.566-0.8,5.281-1.2,8.144-1.2c3.156,0,5.997,0.379,8.522,1.137s4.692,1.894,6.502,3.409
		c1.81,1.515,3.198,3.398,4.167,5.649c0.967,2.252,1.451,4.872,1.451,7.859c0,2.021-0.179,3.978-0.536,5.871
		c-0.358,1.894-0.705,3.515-1.042,4.861h-11.047c-0.043-2.862-0.169-5.366-0.379-7.513c-0.211-2.146-0.6-3.924-1.168-5.334
		s-1.348-2.472-2.336-3.188c-0.989-0.715-2.283-1.073-3.882-1.073c-1.389,0-2.547,0.222-3.473,0.663
		c-0.926,0.442-1.673,1.021-2.241,1.736c-0.567,0.716-0.968,1.515-1.199,2.398s-0.347,1.789-0.347,2.715
		c0,2.02,0.483,3.893,1.452,5.618c0.967,1.727,2.25,3.599,3.851,5.618l12.752,14.962c0.925,1.136,1.998,2.515,3.219,4.135
		s2.378,3.408,3.473,5.365c1.094,1.957,2.02,4.094,2.777,6.408s1.137,4.734,1.137,7.26c0,3.072-0.484,5.86-1.452,8.364
		c-0.969,2.504-2.399,4.64-4.293,6.407s-4.22,3.136-6.976,4.104c-2.757,0.968-5.902,1.452-9.438,1.452
		c-2.904,0-5.64-0.327-8.207-0.979c-2.567-0.652-4.797-1.726-6.691-3.22c-1.894-1.493-3.388-3.461-4.481-5.902
		C319.497,488.94,318.951,485.931,318.951,482.354z"/>
	<path fill="#4B5568" d="M376.523,424.97h-6.755v-11.362h8.144l3.22-22.537h11.363v22.537h13.888v11.362h-13.888v55.301
		c0,1.894,0.179,3.419,0.536,4.576c0.357,1.158,0.853,2.062,1.483,2.715c0.632,0.653,1.367,1.084,2.21,1.294
		c0.842,0.211,1.726,0.315,2.651,0.315c1.557,0,2.936-0.189,4.135-0.568c1.199-0.378,2.346-0.904,3.44-1.578v8.838
		c-0.926,1.137-1.925,2.062-2.998,2.778s-2.179,1.294-3.314,1.735c-1.137,0.442-2.295,0.747-3.473,0.916
		c-1.179,0.167-2.335,0.252-3.472,0.252c-2.231,0-4.377-0.295-6.438-0.884c-2.062-0.589-3.894-1.714-5.492-3.377
		c-1.601-1.662-2.873-3.967-3.819-6.913c-0.947-2.945-1.421-6.775-1.421-11.489V424.97z"/>
</g>
<g>
	<path fill="#4B5568" d="M24.457,561.528c0-0.501,0.054-0.985,0.163-1.453c0.108-0.467,0.213-0.84,0.316-1.118h3.409
		c0,0.835,0.048,1.533,0.144,2.096c0.096,0.562,0.252,1.01,0.469,1.344c0.217,0.334,0.508,0.573,0.872,0.718
		c0.364,0.145,0.808,0.217,1.332,0.217c0.728,0,1.257-0.178,1.589-0.534c0.332-0.355,0.498-0.768,0.498-1.235
		c0-0.244-0.038-0.479-0.115-0.701s-0.185-0.448-0.326-0.676c-0.141-0.229-0.313-0.46-0.517-0.693
		c-0.205-0.233-0.434-0.489-0.689-0.768l-3.543-3.641c-0.46-0.501-0.904-1.01-1.331-1.527c-0.428-0.518-0.805-1.052-1.13-1.603
		c-0.326-0.552-0.587-1.128-0.785-1.729c-0.198-0.602-0.297-1.235-0.297-1.903c0-0.891,0.175-1.664,0.527-2.321
		c0.351-0.656,0.823-1.202,1.417-1.636c0.594-0.435,1.28-0.757,2.059-0.969c0.779-0.211,1.603-0.317,2.471-0.317
		c0.958,0,1.819,0.101,2.585,0.301s1.424,0.501,1.973,0.901c0.549,0.401,0.971,0.899,1.264,1.495
		c0.294,0.595,0.441,1.288,0.441,2.078c0,0.534-0.055,1.052-0.163,1.553s-0.214,0.93-0.316,1.286h-3.352
		c-0.013-0.757-0.051-1.42-0.115-1.987c-0.064-0.567-0.182-1.038-0.354-1.411c-0.172-0.372-0.409-0.653-0.708-0.843
		c-0.3-0.189-0.693-0.284-1.178-0.284c-0.421,0-0.772,0.059-1.053,0.176c-0.281,0.117-0.508,0.27-0.68,0.459s-0.293,0.4-0.364,0.635
		c-0.07,0.233-0.105,0.473-0.105,0.718c0,0.534,0.147,1.029,0.441,1.486c0.293,0.456,0.683,0.951,1.168,1.485l3.869,3.957
		c0.281,0.301,0.606,0.666,0.977,1.094c0.37,0.429,0.721,0.901,1.053,1.419c0.332,0.519,0.613,1.083,0.843,1.695
		s0.345,1.252,0.345,1.92c0,0.812-0.147,1.55-0.44,2.212c-0.294,0.663-0.728,1.228-1.302,1.695c-0.575,0.468-1.28,0.829-2.117,1.085
		s-1.791,0.384-2.863,0.384c-0.881,0-1.711-0.086-2.49-0.259c-0.779-0.172-1.456-0.456-2.03-0.852
		c-0.575-0.395-1.028-0.915-1.36-1.561S24.457,562.475,24.457,561.528z"/>
	<path fill="#4B5568" d="M47.518,566.587c-2.222,0-3.917-0.795-5.085-2.387c-1.168-1.592-1.753-4.019-1.753-7.28v-4.341
		c0-1.458,0.122-2.708,0.364-3.749c0.242-1.04,0.565-1.914,0.967-2.621c0.402-0.707,0.862-1.266,1.379-1.678s1.05-0.727,1.599-0.943
		c0.549-0.218,1.092-0.356,1.628-0.418c0.536-0.061,1.027-0.092,1.475-0.092c0.894,0,1.711,0.104,2.452,0.31
		c0.74,0.206,1.379,0.518,1.916,0.935c0.536,0.417,0.951,0.943,1.245,1.578c0.294,0.634,0.441,1.38,0.441,2.237
		c0,0.534-0.029,0.993-0.086,1.377c-0.058,0.385-0.137,0.755-0.239,1.11h-3.869v-0.768c0-1.157-0.157-2.062-0.469-2.713
		c-0.313-0.651-0.827-0.978-1.542-0.978c-0.396,0-0.741,0.081-1.034,0.242c-0.294,0.162-0.54,0.438-0.737,0.827
		c-0.198,0.39-0.345,0.912-0.44,1.569c-0.096,0.656-0.144,1.48-0.144,2.471v6.528c0,1.002,0.039,1.854,0.115,2.555
		s0.21,1.271,0.402,1.712c0.192,0.439,0.447,0.76,0.767,0.96c0.319,0.2,0.715,0.3,1.188,0.3c0.242,0,0.479-0.053,0.708-0.158
		s0.431-0.281,0.604-0.526c0.172-0.244,0.312-0.57,0.421-0.977c0.108-0.406,0.163-0.91,0.163-1.511v-0.718h4.175v0.885
		c0,2.182-0.552,3.771-1.657,4.767S49.714,566.587,47.518,566.587z"/>
	<path fill="#4B5568" d="M58.052,543.346h3.543l0.421,2.337c0.537-0.868,1.152-1.519,1.849-1.953
		c0.696-0.434,1.408-0.651,2.136-0.651c1.392,0,2.419,0.373,3.083,1.119c0.664,0.746,0.996,1.864,0.996,3.355
		c0,0.189-0.016,0.415-0.048,0.677c-0.032,0.262-0.077,0.534-0.134,0.818c-0.058,0.283-0.128,0.567-0.21,0.852
		c-0.083,0.283-0.169,0.542-0.259,0.776h-3.371v-2.138c0-0.468-0.035-0.852-0.105-1.152c-0.07-0.3-0.163-0.542-0.277-0.726
		c-0.115-0.184-0.249-0.312-0.402-0.385c-0.153-0.072-0.319-0.108-0.498-0.108c-0.383,0-0.737,0.108-1.063,0.326
		c-0.326,0.217-0.597,0.521-0.814,0.91v18.934h-4.846V543.346z"/>
	<path fill="#4B5568" d="M79.505,566.587c-1.137,0-2.143-0.184-3.017-0.551c-0.875-0.367-1.612-0.94-2.212-1.72
		c-0.601-0.778-1.054-1.778-1.36-2.997c-0.307-1.219-0.46-2.686-0.46-4.399v-4.341c0-1.458,0.125-2.708,0.374-3.749
		c0.249-1.04,0.575-1.914,0.977-2.621s0.868-1.266,1.398-1.678s1.076-0.727,1.638-0.943c0.562-0.218,1.121-0.356,1.676-0.418
		c0.555-0.061,1.069-0.092,1.542-0.092c0.868,0,1.705,0.114,2.509,0.343s1.513,0.617,2.126,1.169
		c0.613,0.551,1.102,1.288,1.465,2.212s0.546,2.076,0.546,3.456c0,0.468-0.016,0.941-0.048,1.419
		c-0.032,0.479-0.074,0.949-0.125,1.411c-0.051,0.462-0.118,0.91-0.201,1.345c-0.083,0.434-0.169,0.834-0.259,1.202h-8.753v2.337
		c0,1.002,0.044,1.845,0.134,2.529s0.24,1.236,0.45,1.653c0.211,0.418,0.498,0.718,0.862,0.901c0.364,0.184,0.82,0.275,1.37,0.275
		c0.293,0,0.581-0.053,0.862-0.158s0.527-0.281,0.738-0.526c0.21-0.244,0.379-0.57,0.507-0.977c0.127-0.406,0.191-0.91,0.191-1.511
		v-0.718h4.042v0.885c0,2.182-0.597,3.771-1.791,4.767C83.492,566.089,81.765,566.587,79.505,566.587z M82.186,552.796
		c0.013-0.122,0.026-0.286,0.039-0.492s0.022-0.42,0.029-0.644c0.006-0.223,0.009-0.442,0.009-0.659s0-0.403,0-0.56
		c0-1.514-0.204-2.604-0.613-3.272s-1.015-1.002-1.819-1.002c-0.421,0-0.792,0.087-1.111,0.259
		c-0.319,0.173-0.581,0.462-0.785,0.868c-0.204,0.407-0.357,0.943-0.459,1.611c-0.103,0.668-0.153,1.497-0.153,2.488v1.402H82.186z"
		/>
	<path fill="#4B5568" d="M97.165,566.587c-1.137,0-2.143-0.184-3.017-0.551c-0.875-0.367-1.612-0.94-2.212-1.72
		c-0.601-0.778-1.054-1.778-1.36-2.997c-0.307-1.219-0.46-2.686-0.46-4.399v-4.341c0-1.458,0.125-2.708,0.374-3.749
		c0.249-1.04,0.575-1.914,0.977-2.621s0.868-1.266,1.398-1.678s1.076-0.727,1.638-0.943c0.562-0.218,1.121-0.356,1.676-0.418
		c0.555-0.061,1.069-0.092,1.542-0.092c0.868,0,1.705,0.114,2.509,0.343s1.513,0.617,2.126,1.169
		c0.613,0.551,1.102,1.288,1.465,2.212s0.546,2.076,0.546,3.456c0,0.468-0.016,0.941-0.048,1.419
		c-0.032,0.479-0.074,0.949-0.125,1.411c-0.051,0.462-0.118,0.91-0.201,1.345c-0.083,0.434-0.169,0.834-0.259,1.202h-8.753v2.337
		c0,1.002,0.044,1.845,0.134,2.529s0.24,1.236,0.45,1.653c0.211,0.418,0.498,0.718,0.862,0.901c0.364,0.184,0.82,0.275,1.37,0.275
		c0.293,0,0.581-0.053,0.862-0.158s0.527-0.281,0.738-0.526c0.21-0.244,0.379-0.57,0.507-0.977c0.127-0.406,0.191-0.91,0.191-1.511
		v-0.718h4.042v0.885c0,2.182-0.597,3.771-1.791,4.767C101.151,566.089,99.424,566.587,97.165,566.587z M99.846,552.796
		c0.013-0.122,0.026-0.286,0.039-0.492s0.022-0.42,0.029-0.644c0.006-0.223,0.009-0.442,0.009-0.659s0-0.403,0-0.56
		c0-1.514-0.204-2.604-0.613-3.272s-1.015-1.002-1.819-1.002c-0.421,0-0.792,0.087-1.111,0.259
		c-0.319,0.173-0.581,0.462-0.785,0.868c-0.204,0.407-0.357,0.943-0.459,1.611c-0.103,0.668-0.153,1.497-0.153,2.488v1.402H99.846z"
		/>
	<path fill="#4B5568" d="M108.465,543.346h3.735l0.44,2.454v0.017c0.383-0.522,0.795-0.96,1.235-1.311s0.897-0.632,1.37-0.843
		c0.472-0.212,0.954-0.362,1.446-0.451s0.98-0.134,1.465-0.134c1.545,0,2.736,0.471,3.572,1.411c0.836,0.94,1.254,2.352,1.254,4.232
		v17.615h-4.846v-17.465c0-1.013-0.179-1.717-0.536-2.112c-0.358-0.395-0.881-0.593-1.571-0.593c-0.485,0-0.967,0.14-1.446,0.418
		c-0.479,0.278-0.903,0.662-1.273,1.151v18.601h-4.846V543.346z"/>
	<path fill="#4B5568" d="M134.15,566.587c-2.222,0-3.917-0.795-5.085-2.387c-1.168-1.592-1.753-4.019-1.753-7.28v-4.341
		c0-1.458,0.122-2.708,0.364-3.749c0.242-1.04,0.565-1.914,0.967-2.621c0.402-0.707,0.862-1.266,1.379-1.678s1.05-0.727,1.599-0.943
		c0.549-0.218,1.092-0.356,1.628-0.418c0.536-0.061,1.027-0.092,1.475-0.092c0.894,0,1.711,0.104,2.452,0.31
		c0.74,0.206,1.379,0.518,1.916,0.935c0.536,0.417,0.951,0.943,1.245,1.578c0.294,0.634,0.441,1.38,0.441,2.237
		c0,0.534-0.029,0.993-0.086,1.377c-0.058,0.385-0.137,0.755-0.239,1.11h-3.869v-0.768c0-1.157-0.157-2.062-0.469-2.713
		c-0.313-0.651-0.827-0.978-1.542-0.978c-0.396,0-0.741,0.081-1.034,0.242c-0.294,0.162-0.54,0.438-0.737,0.827
		c-0.198,0.39-0.345,0.912-0.44,1.569c-0.096,0.656-0.144,1.48-0.144,2.471v6.528c0,1.002,0.039,1.854,0.115,2.555
		s0.21,1.271,0.402,1.712c0.192,0.439,0.447,0.76,0.767,0.96c0.319,0.2,0.715,0.3,1.188,0.3c0.242,0,0.479-0.053,0.708-0.158
		s0.431-0.281,0.604-0.526c0.172-0.244,0.312-0.57,0.421-0.977c0.108-0.406,0.163-0.91,0.163-1.511v-0.718h4.175v0.885
		c0,2.182-0.552,3.771-1.657,4.767S136.346,566.587,134.15,566.587z"/>
	<path fill="#4B5568" d="M148.324,566.587c-0.817,0-1.542-0.142-2.174-0.426c-0.632-0.283-1.165-0.67-1.599-1.16
		c-0.434-0.489-0.763-1.071-0.986-1.744c-0.224-0.674-0.335-1.405-0.335-2.196c0-0.945,0.134-1.786,0.402-2.521
		c0.268-0.735,0.661-1.397,1.178-1.987c0.518-0.59,1.159-1.127,1.925-1.611s1.653-0.943,2.662-1.378
		c0.485-0.211,1.031-0.426,1.638-0.643s1.146-0.403,1.619-0.56v-3.038c0-0.445-0.019-0.86-0.058-1.244
		c-0.038-0.384-0.131-0.718-0.278-1.002s-0.367-0.506-0.661-0.668c-0.294-0.161-0.696-0.242-1.207-0.242
		c-0.345,0-0.68,0.056-1.006,0.167s-0.613,0.301-0.862,0.568c-0.249,0.267-0.447,0.623-0.594,1.068
		c-0.147,0.445-0.22,0.996-0.22,1.652v1.002h-3.697c-0.115-0.434-0.201-0.832-0.258-1.193c-0.058-0.361-0.086-0.721-0.086-1.077
		c0-0.857,0.169-1.613,0.508-2.271c0.338-0.657,0.811-1.208,1.417-1.653s1.332-0.781,2.174-1.01s1.768-0.343,2.777-0.343
		c1.315,0,2.407,0.126,3.275,0.376s1.561,0.626,2.078,1.127s0.881,1.13,1.092,1.887c0.211,0.757,0.316,1.642,0.316,2.655v17.214
		h-3.601l-0.345-1.97c-0.524,0.656-1.223,1.19-2.097,1.603C150.446,566.381,149.447,566.587,148.324,566.587z M150.469,563.331
		c0.409,0,0.808-0.092,1.197-0.275c0.389-0.184,0.718-0.409,0.986-0.676v-7.196c-0.256,0.089-0.543,0.194-0.862,0.317
		c-0.319,0.122-0.665,0.283-1.035,0.484c-0.345,0.189-0.683,0.417-1.015,0.685c-0.332,0.267-0.629,0.584-0.891,0.951
		s-0.473,0.782-0.632,1.244c-0.16,0.462-0.24,0.977-0.24,1.544c0,0.88,0.198,1.587,0.594,2.121
		C148.968,563.064,149.6,563.331,150.469,563.331z"/>
	<path fill="#4B5568" d="M161.348,561.528c0-0.501,0.054-0.985,0.163-1.453c0.108-0.467,0.213-0.84,0.316-1.118h3.409
		c0,0.835,0.048,1.533,0.144,2.096c0.096,0.562,0.252,1.01,0.469,1.344c0.217,0.334,0.508,0.573,0.872,0.718
		c0.364,0.145,0.808,0.217,1.332,0.217c0.728,0,1.257-0.178,1.589-0.534c0.332-0.355,0.498-0.768,0.498-1.235
		c0-0.244-0.038-0.479-0.115-0.701s-0.185-0.448-0.326-0.676c-0.141-0.229-0.313-0.46-0.517-0.693
		c-0.205-0.233-0.434-0.489-0.689-0.768l-3.543-3.641c-0.46-0.501-0.904-1.01-1.331-1.527c-0.428-0.518-0.805-1.052-1.13-1.603
		c-0.326-0.552-0.587-1.128-0.785-1.729c-0.198-0.602-0.297-1.235-0.297-1.903c0-0.891,0.175-1.664,0.527-2.321
		c0.351-0.656,0.823-1.202,1.417-1.636c0.594-0.435,1.28-0.757,2.059-0.969c0.779-0.211,1.603-0.317,2.471-0.317
		c0.958,0,1.819,0.101,2.585,0.301s1.424,0.501,1.973,0.901c0.549,0.401,0.971,0.899,1.264,1.495
		c0.294,0.595,0.441,1.288,0.441,2.078c0,0.534-0.055,1.052-0.163,1.553s-0.214,0.93-0.316,1.286h-3.352
		c-0.013-0.757-0.051-1.42-0.115-1.987c-0.064-0.567-0.182-1.038-0.354-1.411c-0.172-0.372-0.409-0.653-0.708-0.843
		c-0.3-0.189-0.693-0.284-1.178-0.284c-0.421,0-0.772,0.059-1.053,0.176c-0.281,0.117-0.508,0.27-0.68,0.459s-0.293,0.4-0.364,0.635
		c-0.07,0.233-0.105,0.473-0.105,0.718c0,0.534,0.147,1.029,0.441,1.486c0.293,0.456,0.683,0.951,1.168,1.485l3.869,3.957
		c0.281,0.301,0.606,0.666,0.977,1.094c0.37,0.429,0.721,0.901,1.053,1.419c0.332,0.519,0.613,1.083,0.843,1.695
		s0.345,1.252,0.345,1.92c0,0.812-0.147,1.55-0.44,2.212c-0.294,0.663-0.728,1.228-1.302,1.695c-0.575,0.468-1.28,0.829-2.117,1.085
		s-1.791,0.384-2.863,0.384c-0.881,0-1.711-0.086-2.49-0.259c-0.779-0.172-1.456-0.456-2.03-0.852
		c-0.575-0.395-1.028-0.915-1.36-1.561S161.348,562.475,161.348,561.528z"/>
	<path fill="#4B5568" d="M178.816,546.351h-2.049v-3.005h2.471l0.977-5.961h3.447v5.961h4.214v3.005h-4.214v14.627
		c0,0.501,0.054,0.904,0.163,1.21c0.108,0.307,0.258,0.546,0.45,0.718c0.191,0.173,0.415,0.287,0.67,0.343
		c0.255,0.056,0.523,0.083,0.804,0.083c0.472,0,0.891-0.05,1.254-0.149c0.364-0.101,0.712-0.239,1.044-0.418v2.338
		c-0.281,0.301-0.584,0.545-0.91,0.734s-0.661,0.343-1.005,0.459c-0.345,0.117-0.696,0.197-1.054,0.242s-0.708,0.067-1.053,0.067
		c-0.677,0-1.328-0.078-1.954-0.234c-0.626-0.155-1.182-0.453-1.667-0.894c-0.485-0.439-0.872-1.049-1.159-1.828
		c-0.288-0.778-0.431-1.792-0.431-3.038V546.351z"/>
	<path fill="#4B5568" d="M190.155,561.528c0-0.501,0.054-0.985,0.163-1.453c0.108-0.467,0.213-0.84,0.316-1.118h3.409
		c0,0.835,0.048,1.533,0.144,2.096c0.096,0.562,0.252,1.01,0.469,1.344c0.217,0.334,0.508,0.573,0.872,0.718
		c0.364,0.145,0.808,0.217,1.332,0.217c0.728,0,1.257-0.178,1.589-0.534c0.332-0.355,0.498-0.768,0.498-1.235
		c0-0.244-0.038-0.479-0.115-0.701s-0.185-0.448-0.326-0.676c-0.141-0.229-0.313-0.46-0.517-0.693
		c-0.205-0.233-0.434-0.489-0.689-0.768l-3.543-3.641c-0.46-0.501-0.904-1.01-1.331-1.527c-0.428-0.518-0.805-1.052-1.13-1.603
		c-0.326-0.552-0.587-1.128-0.785-1.729c-0.198-0.602-0.297-1.235-0.297-1.903c0-0.891,0.175-1.664,0.527-2.321
		c0.351-0.656,0.823-1.202,1.417-1.636c0.594-0.435,1.28-0.757,2.059-0.969c0.779-0.211,1.603-0.317,2.471-0.317
		c0.958,0,1.819,0.101,2.585,0.301s1.424,0.501,1.973,0.901c0.549,0.401,0.971,0.899,1.264,1.495
		c0.294,0.595,0.441,1.288,0.441,2.078c0,0.534-0.055,1.052-0.163,1.553s-0.214,0.93-0.316,1.286h-3.352
		c-0.013-0.757-0.051-1.42-0.115-1.987c-0.064-0.567-0.182-1.038-0.354-1.411c-0.172-0.372-0.409-0.653-0.708-0.843
		c-0.3-0.189-0.693-0.284-1.178-0.284c-0.421,0-0.772,0.059-1.053,0.176c-0.281,0.117-0.508,0.27-0.68,0.459s-0.293,0.4-0.364,0.635
		c-0.07,0.233-0.105,0.473-0.105,0.718c0,0.534,0.147,1.029,0.441,1.486c0.293,0.456,0.683,0.951,1.168,1.485l3.869,3.957
		c0.281,0.301,0.606,0.666,0.977,1.094c0.37,0.429,0.721,0.901,1.053,1.419c0.332,0.519,0.613,1.083,0.843,1.695
		s0.345,1.252,0.345,1.92c0,0.812-0.147,1.55-0.44,2.212c-0.294,0.663-0.728,1.228-1.302,1.695c-0.575,0.468-1.28,0.829-2.117,1.085
		s-1.791,0.384-2.863,0.384c-0.881,0-1.711-0.086-2.49-0.259c-0.779-0.172-1.456-0.456-2.03-0.852
		c-0.575-0.395-1.028-0.915-1.36-1.561S190.155,562.475,190.155,561.528z"/>
	<path fill="#4B5568" d="M222.104,566.587c-0.562,0-1.133-0.039-1.715-0.116c-0.58-0.078-1.143-0.239-1.686-0.484
		s-1.053-0.596-1.531-1.052s-0.897-1.058-1.255-1.804c-0.358-0.745-0.639-1.664-0.843-2.755c-0.205-1.091-0.307-2.393-0.307-3.907
		v-3.606c0-1.491,0.105-2.769,0.316-3.831c0.21-1.063,0.498-1.957,0.862-2.681c0.364-0.723,0.789-1.299,1.273-1.728
		c0.486-0.429,1-0.757,1.543-0.985c0.543-0.228,1.102-0.378,1.676-0.451c0.574-0.072,1.137-0.108,1.686-0.108
		c0.523,0,1.066,0.033,1.627,0.101c0.562,0.066,1.111,0.209,1.648,0.426c0.535,0.217,1.043,0.54,1.521,0.969
		c0.48,0.428,0.9,1.004,1.266,1.728c0.363,0.724,0.65,1.622,0.861,2.696s0.316,2.363,0.316,3.865v3.606
		c0,1.492-0.109,2.777-0.326,3.857s-0.512,1.992-0.881,2.738c-0.371,0.746-0.799,1.35-1.283,1.812
		c-0.486,0.462-0.996,0.821-1.533,1.077c-0.535,0.256-1.082,0.426-1.637,0.509C223.146,566.546,222.613,566.587,222.104,566.587z
		 M222.143,563.331c0.434,0,0.801-0.097,1.102-0.292c0.299-0.194,0.541-0.515,0.727-0.96s0.32-1.032,0.402-1.762
		c0.084-0.729,0.125-1.633,0.125-2.713v-5.66c0-1.079-0.041-1.987-0.125-2.722c-0.082-0.734-0.217-1.327-0.402-1.778
		c-0.186-0.45-0.428-0.776-0.727-0.977c-0.301-0.2-0.668-0.301-1.102-0.301c-0.461,0-0.848,0.101-1.16,0.301
		s-0.57,0.526-0.775,0.977c-0.203,0.451-0.352,1.044-0.439,1.778c-0.09,0.734-0.135,1.643-0.135,2.722v5.66
		c0,1.08,0.045,1.984,0.135,2.713c0.088,0.729,0.236,1.316,0.439,1.762c0.205,0.445,0.463,0.766,0.775,0.96
		C221.295,563.234,221.682,563.331,222.143,563.331z"/>
	<path fill="#4B5568" d="M233.653,543.346h3.734l0.44,2.454v0.017c0.384-0.522,0.795-0.96,1.235-1.311
		c0.441-0.351,0.897-0.632,1.37-0.843c0.472-0.212,0.954-0.362,1.446-0.451c0.491-0.089,0.979-0.134,1.465-0.134
		c1.545,0,2.735,0.471,3.572,1.411c0.836,0.94,1.255,2.352,1.255,4.232v17.615h-4.847v-17.465c0-1.013-0.179-1.717-0.536-2.112
		c-0.357-0.395-0.881-0.593-1.57-0.593c-0.485,0-0.967,0.14-1.446,0.418c-0.479,0.278-0.903,0.662-1.273,1.151v18.601h-4.846
		V543.346z"/>
	<path fill="#4B5568" d="M262.135,546.351h-2.05v-3.005h2.471l0.977-5.961h3.448v5.961h4.214v3.005h-4.214v14.627
		c0,0.501,0.054,0.904,0.162,1.21c0.108,0.307,0.259,0.546,0.45,0.718c0.191,0.173,0.415,0.287,0.671,0.343
		c0.255,0.056,0.523,0.083,0.805,0.083c0.472,0,0.891-0.05,1.254-0.149c0.364-0.101,0.712-0.239,1.044-0.418v2.338
		c-0.281,0.301-0.584,0.545-0.909,0.734c-0.326,0.189-0.661,0.343-1.006,0.459c-0.345,0.117-0.696,0.197-1.054,0.242
		s-0.709,0.067-1.054,0.067c-0.677,0-1.328-0.078-1.953-0.234c-0.626-0.155-1.182-0.453-1.667-0.894
		c-0.485-0.439-0.871-1.049-1.158-1.828c-0.287-0.778-0.431-1.792-0.431-3.038V546.351z"/>
	<path fill="#4B5568" d="M280.866,566.587c-1.137,0-2.142-0.184-3.017-0.551s-1.612-0.94-2.212-1.72
		c-0.601-0.778-1.054-1.778-1.36-2.997c-0.306-1.219-0.459-2.686-0.459-4.399v-4.341c0-1.458,0.124-2.708,0.373-3.749
		c0.249-1.04,0.575-1.914,0.977-2.621c0.402-0.707,0.868-1.266,1.398-1.678s1.076-0.727,1.638-0.943
		c0.562-0.218,1.12-0.356,1.676-0.418c0.556-0.061,1.069-0.092,1.542-0.092c0.868,0,1.705,0.114,2.509,0.343
		c0.805,0.229,1.514,0.617,2.127,1.169c0.612,0.551,1.101,1.288,1.465,2.212s0.546,2.076,0.546,3.456
		c0,0.468-0.017,0.941-0.048,1.419c-0.032,0.479-0.073,0.949-0.125,1.411c-0.051,0.462-0.118,0.91-0.2,1.345
		c-0.084,0.434-0.17,0.834-0.259,1.202h-8.754v2.337c0,1.002,0.045,1.845,0.135,2.529c0.089,0.685,0.239,1.236,0.45,1.653
		c0.21,0.418,0.498,0.718,0.861,0.901c0.364,0.184,0.82,0.275,1.37,0.275c0.293,0,0.58-0.053,0.861-0.158s0.527-0.281,0.737-0.526
		c0.211-0.244,0.38-0.57,0.508-0.977s0.191-0.91,0.191-1.511v-0.718h4.042v0.885c0,2.182-0.598,3.771-1.791,4.767
		C284.854,566.089,283.127,566.587,280.866,566.587z M283.548,552.796c0.013-0.122,0.025-0.286,0.038-0.492s0.022-0.42,0.029-0.644
		c0.006-0.223,0.01-0.442,0.01-0.659s0-0.403,0-0.56c0-1.514-0.205-2.604-0.613-3.272c-0.409-0.668-1.015-1.002-1.819-1.002
		c-0.422,0-0.792,0.087-1.111,0.259c-0.319,0.173-0.581,0.462-0.785,0.868c-0.204,0.407-0.357,0.943-0.46,1.611
		c-0.102,0.668-0.153,1.497-0.153,2.488v1.402H283.548z"/>
	<path fill="#4B5568" d="M298.316,566.587c-2.223,0-3.917-0.795-5.086-2.387c-1.168-1.592-1.752-4.019-1.752-7.28v-4.341
		c0-1.458,0.121-2.708,0.363-3.749c0.243-1.04,0.565-1.914,0.968-2.621s0.861-1.266,1.379-1.678c0.517-0.412,1.05-0.727,1.6-0.943
		c0.549-0.218,1.092-0.356,1.628-0.418c0.536-0.061,1.027-0.092,1.475-0.092c0.894,0,1.711,0.104,2.452,0.31
		c0.74,0.206,1.379,0.518,1.915,0.935s0.951,0.943,1.245,1.578c0.293,0.634,0.44,1.38,0.44,2.237c0,0.534-0.029,0.993-0.086,1.377
		c-0.058,0.385-0.138,0.755-0.24,1.11h-3.868v-0.768c0-1.157-0.157-2.062-0.47-2.713c-0.313-0.651-0.827-0.978-1.542-0.978
		c-0.396,0-0.74,0.081-1.034,0.242c-0.294,0.162-0.54,0.438-0.737,0.827c-0.198,0.39-0.345,0.912-0.44,1.569
		c-0.096,0.656-0.144,1.48-0.144,2.471v6.528c0,1.002,0.038,1.854,0.114,2.555c0.077,0.701,0.211,1.271,0.402,1.712
		c0.191,0.439,0.447,0.76,0.767,0.96c0.318,0.2,0.715,0.3,1.188,0.3c0.242,0,0.479-0.053,0.708-0.158
		c0.23-0.105,0.432-0.281,0.604-0.526c0.173-0.244,0.313-0.57,0.422-0.977s0.163-0.91,0.163-1.511v-0.718h4.175v0.885
		c0,2.182-0.553,3.771-1.656,4.767C302.163,566.089,300.512,566.587,298.316,566.587z"/>
	<path fill="#4B5568" d="M308.851,535.966h4.846v5.409l-0.249,3.94c0.357-0.434,0.743-0.793,1.159-1.076
		c0.414-0.284,0.843-0.513,1.283-0.685c0.44-0.173,0.887-0.295,1.341-0.368c0.453-0.072,0.902-0.108,1.35-0.108
		c1.545,0,2.736,0.471,3.572,1.411s1.255,2.352,1.255,4.232v17.615h-4.846v-17.465c0-1.013-0.18-1.717-0.536-2.112
		c-0.358-0.395-0.882-0.593-1.571-0.593c-0.485,0-0.974,0.143-1.465,0.426c-0.492,0.284-0.923,0.677-1.293,1.178v18.566h-4.846
		V535.966z"/>
	<path fill="#4B5568" d="M337.37,546.351h-2.05v-3.005h2.471l0.977-5.961h3.448v5.961h4.214v3.005h-4.214v14.627
		c0,0.501,0.054,0.904,0.162,1.21c0.108,0.307,0.259,0.546,0.45,0.718c0.191,0.173,0.415,0.287,0.671,0.343
		c0.255,0.056,0.523,0.083,0.805,0.083c0.472,0,0.891-0.05,1.254-0.149c0.364-0.101,0.712-0.239,1.044-0.418v2.338
		c-0.281,0.301-0.584,0.545-0.909,0.734c-0.326,0.189-0.661,0.343-1.006,0.459c-0.345,0.117-0.696,0.197-1.054,0.242
		s-0.709,0.067-1.054,0.067c-0.677,0-1.328-0.078-1.953-0.234c-0.626-0.155-1.182-0.453-1.667-0.894
		c-0.485-0.439-0.871-1.049-1.158-1.828c-0.287-0.778-0.431-1.792-0.431-3.038V546.351z"/>
	<path fill="#4B5568" d="M356.391,566.587c-0.562,0-1.134-0.039-1.715-0.116c-0.581-0.078-1.143-0.239-1.686-0.484
		s-1.054-0.596-1.532-1.052s-0.897-1.058-1.255-1.804c-0.357-0.745-0.639-1.664-0.843-2.755s-0.306-2.393-0.306-3.907v-3.606
		c0-1.491,0.105-2.769,0.315-3.831c0.211-1.063,0.498-1.957,0.862-2.681c0.364-0.723,0.788-1.299,1.273-1.728
		s0.999-0.757,1.542-0.985c0.543-0.228,1.102-0.378,1.676-0.451c0.575-0.072,1.137-0.108,1.686-0.108
		c0.523,0,1.066,0.033,1.628,0.101c0.562,0.066,1.111,0.209,1.647,0.426s1.044,0.54,1.522,0.969c0.479,0.428,0.9,1.004,1.265,1.728
		c0.363,0.724,0.651,1.622,0.861,2.696c0.211,1.074,0.316,2.363,0.316,3.865v3.606c0,1.492-0.108,2.777-0.325,3.857
		c-0.218,1.08-0.512,1.992-0.882,2.738s-0.798,1.35-1.283,1.812s-0.996,0.821-1.532,1.077s-1.082,0.426-1.638,0.509
		C357.434,566.546,356.9,566.587,356.391,566.587z M356.429,563.331c0.434,0,0.801-0.097,1.102-0.292
		c0.3-0.194,0.542-0.515,0.728-0.96c0.185-0.445,0.319-1.032,0.402-1.762c0.083-0.729,0.124-1.633,0.124-2.713v-5.66
		c0-1.079-0.041-1.987-0.124-2.722s-0.218-1.327-0.402-1.778c-0.186-0.45-0.428-0.776-0.728-0.977
		c-0.301-0.2-0.668-0.301-1.102-0.301c-0.46,0-0.847,0.101-1.159,0.301s-0.571,0.526-0.775,0.977
		c-0.204,0.451-0.352,1.044-0.44,1.778c-0.09,0.734-0.135,1.643-0.135,2.722v5.66c0,1.08,0.045,1.984,0.135,2.713
		c0.089,0.729,0.236,1.316,0.44,1.762s0.463,0.766,0.775,0.96C355.582,563.234,355.969,563.331,356.429,563.331z"/>
	<path fill="#4B5568" d="M374.586,566.587c-0.562,0-1.134-0.039-1.715-0.116c-0.581-0.078-1.143-0.239-1.686-0.484
		s-1.054-0.596-1.532-1.052s-0.897-1.058-1.255-1.804c-0.357-0.745-0.639-1.664-0.843-2.755s-0.306-2.393-0.306-3.907v-3.606
		c0-1.491,0.105-2.769,0.315-3.831c0.211-1.063,0.498-1.957,0.862-2.681c0.364-0.723,0.788-1.299,1.273-1.728
		s0.999-0.757,1.542-0.985c0.543-0.228,1.102-0.378,1.676-0.451c0.575-0.072,1.137-0.108,1.686-0.108
		c0.523,0,1.066,0.033,1.628,0.101c0.562,0.066,1.111,0.209,1.647,0.426s1.044,0.54,1.522,0.969c0.479,0.428,0.9,1.004,1.265,1.728
		c0.363,0.724,0.651,1.622,0.861,2.696c0.211,1.074,0.316,2.363,0.316,3.865v3.606c0,1.492-0.108,2.777-0.325,3.857
		c-0.218,1.08-0.512,1.992-0.882,2.738s-0.798,1.35-1.283,1.812s-0.996,0.821-1.532,1.077s-1.082,0.426-1.638,0.509
		C375.629,566.546,375.096,566.587,374.586,566.587z M374.624,563.331c0.434,0,0.801-0.097,1.102-0.292
		c0.3-0.194,0.542-0.515,0.728-0.96c0.185-0.445,0.319-1.032,0.402-1.762c0.083-0.729,0.124-1.633,0.124-2.713v-5.66
		c0-1.079-0.041-1.987-0.124-2.722s-0.218-1.327-0.402-1.778c-0.186-0.45-0.428-0.776-0.728-0.977
		c-0.301-0.2-0.668-0.301-1.102-0.301c-0.46,0-0.847,0.101-1.159,0.301s-0.571,0.526-0.775,0.977
		c-0.204,0.451-0.352,1.044-0.44,1.778c-0.09,0.734-0.135,1.643-0.135,2.722v5.66c0,1.08,0.045,1.984,0.135,2.713
		c0.089,0.729,0.236,1.316,0.44,1.762s0.463,0.766,0.775,0.96C373.777,563.234,374.164,563.331,374.624,563.331z"/>
	<path fill="#4B5568" d="M386.212,535.966h4.846v30.371h-4.846V535.966z"/>
	<path fill="#4B5568" d="M395.08,561.528c0-0.501,0.054-0.985,0.162-1.453c0.108-0.467,0.214-0.84,0.316-1.118h3.409
		c0,0.835,0.048,1.533,0.144,2.096c0.096,0.562,0.252,1.01,0.47,1.344c0.217,0.334,0.508,0.573,0.871,0.718
		c0.364,0.145,0.808,0.217,1.331,0.217c0.729,0,1.258-0.178,1.59-0.534c0.332-0.355,0.498-0.768,0.498-1.235
		c0-0.244-0.038-0.479-0.115-0.701c-0.076-0.223-0.185-0.448-0.325-0.676c-0.141-0.229-0.313-0.46-0.518-0.693
		s-0.434-0.489-0.689-0.768l-3.543-3.641c-0.46-0.501-0.903-1.01-1.331-1.527s-0.805-1.052-1.13-1.603
		c-0.326-0.552-0.588-1.128-0.786-1.729c-0.197-0.602-0.297-1.235-0.297-1.903c0-0.891,0.176-1.664,0.527-2.321
		c0.351-0.656,0.823-1.202,1.417-1.636c0.594-0.435,1.28-0.757,2.06-0.969c0.778-0.211,1.602-0.317,2.471-0.317
		c0.957,0,1.819,0.101,2.586,0.301c0.766,0.2,1.423,0.501,1.973,0.901c0.549,0.401,0.97,0.899,1.264,1.495
		c0.294,0.595,0.44,1.288,0.44,2.078c0,0.534-0.054,1.052-0.162,1.553c-0.109,0.501-0.215,0.93-0.316,1.286h-3.352
		c-0.014-0.757-0.052-1.42-0.115-1.987c-0.064-0.567-0.182-1.038-0.354-1.411c-0.172-0.372-0.408-0.653-0.709-0.843
		c-0.3-0.189-0.692-0.284-1.178-0.284c-0.421,0-0.772,0.059-1.054,0.176c-0.28,0.117-0.507,0.27-0.68,0.459
		c-0.172,0.189-0.294,0.4-0.363,0.635c-0.07,0.233-0.105,0.473-0.105,0.718c0,0.534,0.146,1.029,0.44,1.486
		c0.293,0.456,0.683,0.951,1.168,1.485l3.869,3.957c0.281,0.301,0.606,0.666,0.977,1.094c0.37,0.429,0.722,0.901,1.054,1.419
		c0.332,0.519,0.613,1.083,0.843,1.695s0.345,1.252,0.345,1.92c0,0.812-0.146,1.55-0.44,2.212c-0.294,0.663-0.728,1.228-1.303,1.695
		c-0.574,0.468-1.28,0.829-2.116,1.085c-0.837,0.256-1.791,0.384-2.863,0.384c-0.881,0-1.711-0.086-2.49-0.259
		c-0.779-0.172-1.455-0.456-2.03-0.852c-0.574-0.395-1.028-0.915-1.359-1.561C395.245,563.271,395.08,562.475,395.08,561.528z"/>
</g>
<g>
	<path fill="#4B5568" d="M212.255,16.414l19.695,15.949L42.854,208.322l-19.696-15.949L212.255,16.414z"/>
</g>
<g>
	<path fill="#4B5568" d="M198.683,30.809l19.971-15.603L404.65,194.438l-19.971,15.603L198.683,30.809z"/>
</g>
<g>
</g>
<g>
</g>
<g>
</g>
<g>
</g>
<g>
</g>
<g>
</g>
<g>
</g>
<g>
</g>
<g>
</g>
<g>
</g>
<g>
</g>
<g>
</g>
<g>
</g>
<g>
</g>
<g>
</g>
</svg>
